<svg width="207" height="52" viewBox="0 0 207 52" fill="none" xmlns="http://www.w3.org/2000/svg">
<path d="M2.84231 16.0809C7.13836 12.4767 11.1178 9.01032 16.6332 3.3756ZM2.84231 16.0809C5.66961 13.3411 8.27649 11.0477 16.6332 3.3756ZM3.20799 17.8611C7.86272 13.6943 14.2918 7.87523 19.9033 2.48014ZM3.20799 17.8611C10.2993 11.4542 16.1713 5.54974 19.9033 2.48014ZM2.84832 20.3098C8.26247 15.6918 11.6729 11.1486 23.1724 1.58565ZM2.84832 20.3098C11.208 13.0986 18.8884 5.19175 23.1724 1.58565ZM1.76328 23.427C7.30968 18.7207 11.9163 13.4905 25.7162 1.3596ZM1.76328 23.427C9.09202 16.859 16.4999 9.84563 25.7162 1.3596ZM0.677246 26.5441C11.3102 16.3545 21.5774 6.40349 28.259 1.13258ZM0.677246 26.5441C10.5437 16.8502 20.7769 7.61716 28.259 1.13258ZM1.04293 28.3244C7.56716 22.7731 13.0615 17.8388 30.8027 0.906534ZM1.04293 28.3244C7.35476 22.7081 13.6476 16.7542 30.8027 0.906534ZM2.13498 29.4362C12.6126 19.49 23.9519 8.35255 32.6201 1.34893ZM2.13498 29.4362C12.5535 19.7044 23.3818 9.56331 32.6201 1.34893ZM2.50066 31.2155C10.5017 23.9412 20.817 15.8849 35.1639 1.12288ZM2.50066 31.2155C11.4164 23.002 19.7129 14.6256 35.1639 1.12288ZM2.86735 32.9957C12.1778 25.0578 19.4154 16.9075 37.7077 0.896832ZM2.86735 32.9957C13.6556 22.4752 25.1451 13.019 37.7077 0.896832ZM3.23304 34.776C12.6577 27.5182 20.5745 17.9329 39.5251 1.33923ZM3.23304 34.776C17.6491 21.2373 32.2204 8.51748 39.5251 1.33923ZM4.32508 35.8868C11.223 28.1109 20.1568 21.0704 42.0688 1.11318ZM4.32508 35.8868C13.8429 26.8652 24.0441 17.2189 42.0688 1.11318ZM4.69077 37.667C13.8359 28.7444 24.7624 18.9458 44.6126 0.887131ZM4.69077 37.667C16.8065 26.4995 29.0635 14.9254 44.6126 0.887131ZM5.78282 38.7779C20.5295 25.4595 34.5387 13.4449 46.43 1.32953ZM5.78282 38.7779C16.4117 29.375 26.9214 19.7161 46.43 1.32953ZM6.87386 39.8897C18.0548 30.2104 28.7819 18.937 48.9738 1.10348ZM6.87386 39.8897C18.8613 28.6717 30.424 17.7224 48.9738 1.10348ZM7.24055 41.669C16.8175 33.1878 27.2911 22.0231 51.5166 0.877429ZM7.24055 41.669C22.0714 28.2011 37.5233 13.9349 51.5166 0.877429ZM8.3316 42.7808C17.9606 33.0879 28.5936 24.2458 53.335 1.31982ZM8.3316 42.7808C25.7192 26.5092 44.0716 10.3695 53.335 1.31982ZM9.42364 43.8916C24.2995 30.5839 39.2195 15.6045 55.8777 1.09378ZM9.42364 43.8916C28.2309 26.8759 46.935 10.0804 55.8777 1.09378ZM11.2411 44.334C25.3705 31.2989 38.7626 19.2572 58.4215 0.866757ZM11.2411 44.334C21.5414 34.643 31.3457 26.1328 58.4215 0.866757ZM12.3331 45.4458C31.8176 28.3312 50.2923 10.58 60.2389 1.31012ZM12.3331 45.4458C25.7312 32.9288 39.0372 20.6164 60.2389 1.31012ZM13.4251 46.5567C23.3618 36.2205 34.9635 27.3037 62.7827 1.0831ZM13.4251 46.5567C27.8652 33.2732 41.6811 20.2041 62.7827 1.0831ZM14.5172 47.6685C31.4549 31.6957 47.1834 16.9307 65.3264 0.857056ZM14.5172 47.6685C34.5147 29.1529 54.3779 11.1699 65.3264 0.857056ZM16.3346 48.1109C28.2369 37.4361 40.9477 25.2363 67.1438 1.29945ZM16.3346 48.1109C33.3936 32.0275 50.7511 16.3981 67.1438 1.29945ZM18.152 48.5533C35.6298 32.4349 54.8167 15.1049 69.6876 1.0734ZM18.152 48.5533C37.8169 30.871 57.7432 12.2778 69.6876 1.0734ZM19.2441 49.6641C33.7533 36.467 48.3085 23.458 71.505 1.5158ZM19.2441 49.6641C37.6766 33.1082 55.8837 16.6222 71.505 1.5158ZM21.0615 50.1065C38.433 34.1269 56.5019 16.5504 74.0488 1.28975ZM21.0615 50.1065C41.8775 31.2242 63.2355 11.1437 74.0488 1.28975ZM23.6052 49.8805C42.0328 33.8786 58.689 19.0137 76.5916 1.0637ZM23.6052 49.8805C44.5445 31.1757 65.5328 11.3038 76.5916 1.0637ZM25.4226 50.3228C46.0864 31.9829 65.2343 14.7421 78.41 1.5061ZM25.4226 50.3228C39.3718 37.0102 53.338 23.9887 78.41 1.5061ZM27.9664 50.0968C43.1038 36.9656 57.8885 22.1832 80.9527 1.28005ZM27.9664 50.0968C45.9141 33.3013 64.9047 17.0772 80.9527 1.28005ZM30.5102 49.8708C44.0956 38.0435 56.5159 25.5216 83.4965 1.054ZM30.5102 49.8708C48.0941 33.3159 66.1009 17.5478 83.4965 1.054ZM32.3276 50.3131C53.2027 32.0731 73.8915 11.1554 85.3139 1.49639ZM32.3276 50.3131C44.793 38.384 57.7532 26.9283 85.3139 1.49639ZM34.8714 50.0871C52.9012 33.4711 73.4236 15.6618 87.8577 1.27035ZM34.8714 50.0871C45.7167 40.0682 56.1432 30.125 87.8577 1.27035ZM37.4141 49.861C48.2905 40.3961 60.5315 28.8812 90.4015 1.0443ZM37.4141 49.861C50.8473 37.4003 65.2774 24.9802 90.4015 1.0443ZM39.2325 50.3034C50.7762 39.262 62.6204 27.4823 92.2189 1.48669ZM39.2325 50.3034C58.5447 31.9576 78.3699 14.094 92.2189 1.48669ZM41.7753 50.0774C61.6465 31.654 83.3693 11.786 94.7626 1.26064ZM41.7753 50.0774C57.2132 35.7723 73.1261 21.4682 94.7626 1.26064ZM44.3191 49.8513C65.9767 30.4316 85.5564 11.2679 97.3064 1.03363ZM44.3191 49.8513C58.2602 37.5458 71.7655 24.7328 97.3064 1.03363ZM46.1365 50.2937C64.9628 34.4519 81.6821 17.4915 99.1238 1.47602ZM46.1365 50.2937C64.0581 34.2424 82.4606 16.8124 99.1238 1.47602ZM48.6802 50.0667C60.6677 38.0076 72.8415 26.5625 101.668 1.24997ZM48.6802 50.0667C66.703 34.2948 83.3963 17.4847 101.668 1.24997ZM50.4976 50.5101C71.4078 32.5669 90.6519 13.3634 104.21 1.02392ZM50.4976 50.5101C64.4919 37.8203 78.962 24.5679 104.21 1.02392ZM53.0414 50.2831C71.3197 34.5654 87.9639 16.8328 106.029 1.46632ZM53.0414 50.2831C70.1825 34.4742 87.4249 18.7886 106.029 1.46632ZM55.5852 50.057C69.5363 37.5749 81.9526 24.7687 108.572 1.24027ZM55.5852 50.057C71.0893 35.7422 86.8177 21.4983 108.572 1.24027ZM57.4026 50.4994C77.8519 31.6084 99.9083 12.3457 110.39 1.68267ZM57.4026 50.4994C71.3868 37.7951 84.6427 24.7774 110.39 1.68267ZM59.9464 50.2734C78.5673 33.7941 97.4907 15.2708 112.933 1.45662ZM59.9464 50.2734C73.5609 37.9445 86.934 24.9492 112.933 1.45662ZM62.4901 50.0473C77.4963 37.2441 93.2197 23.035 115.476 1.23057ZM62.4901 50.0473C82.3313 32.3438 101.167 14.9012 115.476 1.23057ZM64.3075 50.4897C75.3933 39.717 85.9661 29.41 117.294 1.67296ZM64.3075 50.4897C80.0681 36.0808 96.2715 21.0501 117.294 1.67296ZM66.8513 50.2637C81.9486 36.6484 97.4737 22.3831 119.838 1.44692ZM66.8513 50.2637C83.3302 35.2387 99.8462 20.3263 119.838 1.44692ZM69.3941 50.0376C84.6958 35.2989 100.951 21.9523 122.381 1.22087ZM69.3941 50.0376C82.3764 38.4839 95.2726 27.0961 122.381 1.22087ZM71.2125 50.48C87.0171 34.9603 102.417 21.2703 124.199 1.66326ZM71.2125 50.48C82.9274 39.7936 94.966 28.0226 124.199 1.66326ZM73.7552 50.254C87.6202 37.9513 103.372 23.49 126.743 1.43721ZM73.7552 50.254C94.2427 31.2649 115.387 11.6919 126.743 1.43721ZM76.299 50.0279C90.8132 37.1092 104.08 24.8444 129.286 1.2102ZM76.299 50.0279C91.785 34.7818 108.032 20.5281 129.286 1.2102ZM78.1164 50.4703C95.5902 33.5293 112.138 18.3084 131.104 1.65356ZM78.1164 50.4703C97.9757 31.0389 119.319 12.3496 131.104 1.65356ZM80.6602 50.2443C95.0251 37.0122 111.645 22.0891 133.648 1.42654ZM80.6602 50.2443C101.295 31.0563 121.248 12.272 133.648 1.42654ZM83.204 50.0172C99.1148 34.2336 115.406 19.5434 136.19 1.20049ZM83.204 50.0172C103.057 31.7258 122.228 14.3443 136.19 1.20049ZM85.0214 50.4606C98.3013 38.3753 111.176 25.4546 138.009 1.64289ZM85.0214 50.4606C98.8122 37.2829 112.682 24.8104 138.009 1.64289ZM87.5651 50.2336C102.281 36.6707 117.125 23.6763 140.551 1.41684ZM87.5651 50.2336C105.218 33.7825 124.101 17.3838 140.551 1.41684ZM89.3825 50.677C108.789 32.1672 128.413 15.1573 143.095 1.19079ZM89.3825 50.677C110.283 30.7837 131.87 11.7122 143.095 1.19079ZM91.9263 50.4499C110.787 32.8376 127.083 17.6865 144.913 1.63319ZM91.9263 50.4499C103.595 39.0922 116.331 28.6872 144.913 1.63319ZM94.4701 50.2239C110.96 34.839 126.414 21.4119 147.456 1.40714ZM94.4701 50.2239C109.283 36.6348 123.498 22.7226 147.456 1.40714ZM96.2875 50.6663C112.082 36.5795 127.522 21.1869 150 1.18109ZM96.2875 50.6663C115.246 33.7321 134.107 15.7976 150 1.18109ZM98.8313 50.4402C115.323 35.6084 132.506 18.6955 151.818 1.62349ZM98.8313 50.4402C116.241 33.6719 134.06 17.7011 151.818 1.62349ZM101.374 50.2142C117.99 34.0027 136.807 17.607 154.361 1.39744ZM101.374 50.2142C113.828 38.5256 127.258 26.5732 154.361 1.39744ZM103.192 50.6566C116.4 39.294 128.761 26.2793 156.179 1.83983ZM103.192 50.6566C118.461 36.0993 133.949 22.4917 156.179 1.83983ZM105.735 50.4305C123.993 34.3947 141.688 17.0239 158.723 1.61378ZM105.735 50.4305C119.335 38.2045 133.52 25.2344 158.723 1.61378ZM108.279 50.2045C120.61 39.9246 131.529 27.557 161.266 1.38774ZM108.279 50.2045C120.402 39.0466 133.014 26.9535 161.266 1.38774ZM110.096 50.6469C127.184 34.743 145 18.6916 163.084 1.83013ZM110.096 50.6469C129.875 32.9511 150.004 14.0794 163.084 1.83013ZM112.64 50.4208C125.775 39.198 136.739 28.4961 165.627 1.60408ZM112.64 50.4208C130.746 33.865 148.382 17.9494 165.627 1.60408ZM115.184 50.1948C126.491 39.423 140.056 28.2865 168.17 1.37706ZM115.184 50.1948C134.484 32.4611 154.082 14.0969 168.17 1.37706ZM117.001 50.6372C137.557 32.4379 156.934 13.477 169.989 1.82043ZM117.001 50.6372C130.9 38.2288 144.949 24.6833 169.989 1.82043ZM119.545 50.4111C132.369 39.9663 144.079 27.6006 172.531 1.59341ZM119.545 50.4111C130.473 40.1002 140.98 30.7051 172.531 1.59341ZM122.089 50.1841C142.441 30.8992 162.257 13.7942 175.075 1.36736ZM122.089 50.1841C134.913 38.7323 147.55 27.3445 175.075 1.36736ZM123.906 50.6265C144.794 31.4648 164.692 13.2684 176.893 1.80976ZM123.906 50.6265C134.929 40.4553 145.693 31.457 176.893 1.80976ZM126.45 50.4005C145.487 34.3539 162.968 16.273 179.436 1.58371ZM126.45 50.4005C146.332 31.5337 166.915 13.0365 179.436 1.58371ZM128.993 50.1744C146.98 33.1141 164.963 16.9259 181.98 1.35766ZM128.993 50.1744C144.923 35.1999 160.8 21.4934 181.98 1.35766ZM130.811 50.6168C148.069 35.75 164.468 20.3962 183.798 1.80006ZM130.811 50.6168C147.173 35.9615 163.841 20.3593 183.798 1.80006ZM133.354 50.3908C146.372 39.7548 157.924 28.205 185.615 2.24245ZM133.354 50.3908C144.857 39.4347 157.135 28.044 185.615 2.24245ZM135.172 50.8332C152.833 35.686 168.77 20.8424 187.433 2.68485ZM135.172 50.8332C148.196 39.4832 160.825 27.2601 187.433 2.68485ZM137.715 50.6071C153.166 36.594 168.871 22.6149 189.251 3.12724ZM137.715 50.6071C150.775 38.6789 162.963 26.9632 189.251 3.12724ZM140.259 50.3811C158.506 33.2974 179.236 14.7071 190.343 4.23905ZM140.259 50.3811C152.065 39.4114 163.666 28.8871 190.343 4.23905ZM142.076 50.8235C157.701 35.9382 174.711 21.8068 192.16 4.68144ZM142.076 50.8235C157.574 36.237 172.5 22.8575 192.16 4.68144ZM144.62 50.5974C155.286 39.5152 167.242 29.8485 193.252 5.79228ZM144.62 50.5974C162.02 33.8029 180.052 17.997 193.252 5.79228ZM147.164 50.3714C160.064 38.0697 175.229 24.1915 195.07 6.23565ZM147.164 50.3714C159.263 39.3542 171.222 27.9897 195.07 6.23565ZM148.981 50.8138C165.35 36.1148 182.469 20.4437 196.162 7.34649ZM148.981 50.8138C166.408 35.2669 183.691 18.8478 196.162 7.34649ZM151.525 50.5877C169.39 34.6537 186.762 17.8446 197.253 8.45733ZM151.525 50.5877C166.24 37.1723 181.419 23.1029 197.253 8.45733ZM154.069 50.3607C171.244 34.6557 188.123 18.3841 198.345 9.56913ZM154.069 50.3607C166.186 39.0078 177.645 28.3525 198.345 9.56913ZM155.886 50.804C169.395 37.9474 183.889 24.9404 199.437 10.68ZM155.886 50.804C171.149 37.1519 186.483 22.3792 199.437 10.68ZM158.43 50.577C174.072 36.5465 188.727 22.613 200.529 11.7918ZM158.43 50.577C169.603 40.0081 181.362 29.6059 200.529 11.7918ZM160.973 50.351C176.63 36.2031 191.658 22.3724 201.62 12.9026ZM160.973 50.351C176.078 36.009 192.243 21.8718 201.62 12.9026ZM162.79 50.7934C173.609 41.1955 184.85 30.3501 201.987 14.6829ZM162.79 50.7934C177.306 38.0328 191.121 24.6872 201.987 14.6829ZM165.334 50.5673C173.694 42.2559 183.989 34.1764 203.078 15.7937ZM165.334 50.5673C178.006 39.2106 189.697 27.2863 203.078 15.7937ZM167.878 50.3413C182.682 37.2159 195.651 25.2897 203.444 17.574ZM167.878 50.3413C181.448 37.9581 195.461 24.6009 203.444 17.574ZM169.695 50.7837C179.928 40.5543 192.776 30.027 204.536 18.6848ZM169.695 50.7837C180.815 40.9675 192.414 30.1279 204.536 18.6848ZM172.239 50.5576C181.211 42.968 189.115 36.109 204.902 20.4651ZM172.239 50.5576C181.539 42.2986 191.057 33.0248 204.902 20.4651ZM174.056 51C186.455 39.1844 198.585 28.53 205.994 21.5759ZM174.056 51C181.224 43.7005 189.52 37.3566 205.994 21.5759ZM176.6 50.774C186.3 40.9122 197.682 32.7124 205.633 24.0246ZM176.6 50.774C186.223 42.514 195.193 33.4371 205.633 24.0246ZM179.144 50.5479C187.309 44.2826 194.575 36.5814 206 25.8048ZM179.144 50.5479C185.159 45.1887 190.587 40.4369 206 25.8048ZM180.961 50.9903C186.703 45.2896 193.344 38.6149 205.64 28.2535ZM180.961 50.9903C187.081 45.2479 193.846 39.5307 205.64 28.2535ZM184.23 50.0949C192.877 41.8591 201.584 33.8815 205.28 30.7022ZM184.23 50.0949C191.258 44.1604 198.461 37.5613 205.28 30.7022ZM188.951 47.8625C193.042 42.9709 197.997 40.2215 204.195 33.8194ZM188.951 47.8625C193.066 44.6745 195.919 40.9831 204.195 33.8194ZM196.577 42.9554C199.659 40.0333 201.894 37.9833 203.834 36.2681ZM196.577 42.9554C198.237 41.3381 199.936 39.9867 203.834 36.2681Z" stroke="#C45D3E" stroke-width="1.611" stroke-linecap="round"/>
</svg>
