<svg width="203" height="46" viewBox="0 0 203 46" fill="none" xmlns="http://www.w3.org/2000/svg">
<path d="M2.91545 14.821C5.93935 12.9206 8.56222 8.98515 14.9281 2.00989ZM2.91545 14.821C7.04587 9.82414 11.9384 5.18729 14.9281 2.00989ZM1.63427 18.9691C5.71883 15.7156 8.06457 10.1529 18.3179 1.17578ZM1.63427 18.9691C6.43504 13.3937 11.2095 8.37543 18.3179 1.17578ZM1.02051 22.405C8.21679 14.7478 14.3144 8.8398 21.7078 0.341675ZM1.02051 22.405C6.4409 16.3263 11.3851 11.386 21.7078 0.341675ZM1.07417 25.1297C7.01367 19.531 10.4337 14.699 23.0963 1.6421ZM1.07417 25.1297C8.02847 17.5028 15.0442 9.68561 23.0963 1.6421ZM1.79527 27.1423C8.40414 20.1485 13.1269 14.3751 25.8187 1.52015ZM1.79527 27.1423C9.3038 18.8686 17.0065 11.2894 25.8187 1.52015ZM1.84796 29.8671C7.76404 23.2167 12.9415 18.4862 28.542 1.39723ZM1.84796 29.8671C8.26461 22.5103 16.022 15.1107 28.542 1.39723ZM3.23648 31.1675C13.6616 20.608 23.4544 9.90901 31.2644 1.27431ZM3.23648 31.1675C9.81705 24.0039 16.0581 17.2169 31.2644 1.27431ZM3.95757 33.1801C12.3872 24.719 22.2113 14.5127 33.9868 1.15237ZM3.95757 33.1801C14.1631 22.4167 23.9091 11.9245 33.9868 1.15237ZM5.34511 34.4815C13.6177 24.6 23.9247 14.8629 36.0428 1.74161ZM5.34511 34.4815C11.5822 28.1949 18.074 21.2655 36.0428 1.74161ZM6.0662 36.4941C12.7892 28.8993 19.042 22.2362 38.7652 1.61869ZM6.0662 36.4941C17.8847 23.3006 29.4222 11.0212 38.7652 1.61869ZM7.45472 37.7955C14.0343 29.3129 22.4084 21.2197 41.4885 1.49674ZM7.45472 37.7955C19.6011 25.678 30.7619 12.6006 41.4885 1.49674ZM8.84226 39.0959C22.5157 25.157 36.1686 10.7773 44.2109 1.37382ZM8.84226 39.0959C21.5585 25.8058 33.9644 12.5352 44.2109 1.37382ZM10.8982 39.6851C18.0213 31.5626 25.6869 23.683 46.9343 1.25187ZM10.8982 39.6851C22.1888 27.7423 33.7263 15.4912 46.9343 1.25187ZM12.2857 40.9865C21.7887 31.6621 31.082 20.4509 49.6567 1.12895ZM12.2857 40.9865C25.8128 26.8184 38.933 11.8806 49.6567 1.12895ZM13.6743 42.2869C26.41 28.1949 38.9262 15.3029 51.7126 1.71819ZM13.6743 42.2869C22.2288 32.2708 31.3591 23.1513 51.7126 1.71819ZM15.7292 42.8762C27.6521 29.4027 40.0415 16.735 54.435 1.59527ZM15.7292 42.8762C30.0808 27.1657 45.093 11.7801 54.435 1.59527ZM17.7852 43.4654C26.9554 33.1859 37.1444 23.0596 57.1574 1.47333ZM17.7852 43.4654C28.945 32.3304 39.6804 20.809 57.1574 1.47333ZM20.5076 43.3435C35.9032 28.1754 48.6077 12.0474 59.8808 1.35041ZM20.5076 43.3435C33.9751 28.8037 47.5032 13.7713 59.8808 1.35041ZM22.5635 43.9327C35.7305 30.0319 48.3326 17.1428 62.6032 1.22846ZM22.5635 43.9327C33.9741 32.1889 44.972 20.2919 62.6032 1.22846ZM25.2859 43.8098C39.0384 28.3842 54.6419 13.2103 64.6591 1.8177ZM25.2859 43.8098C38.971 28.7091 52.4562 14.3546 64.6591 1.8177ZM28.0093 43.6878C36.3999 34.8005 44.4607 27.7042 67.3815 1.69478ZM28.0093 43.6878C41.4544 28.4866 55.8713 14.5761 67.3815 1.69478ZM30.7317 43.5649C39.5887 33.7752 50.3592 23.5103 70.1049 1.57186ZM30.7317 43.5649C43.4371 29.6885 57.1701 15.5682 70.1049 1.57186ZM33.454 43.443C42.4731 33.8327 49.2176 26.5511 72.8272 1.44991ZM33.454 43.443C48.6477 27.074 64.6513 10.4543 72.8272 1.44991ZM36.1774 43.3201C45.2208 32.7186 56.6168 22.2489 75.5496 1.32699ZM36.1774 43.3201C44.6363 35.2629 52.2503 26.4126 75.5496 1.32699ZM38.2324 43.9093C52.9577 27.5989 66.3247 13.8952 78.273 1.20505ZM38.2324 43.9093C53.4378 27.9315 68.772 11.2358 78.273 1.20505ZM40.9558 43.7864C50.7622 34.8288 59.2065 25.0761 80.328 1.79429ZM40.9558 43.7864C53.8915 30.149 65.9569 17.3662 80.328 1.79429ZM43.6781 43.6644C55.6733 29.5695 70.2102 15.3975 83.0513 1.67137ZM43.6781 43.6644C55.7806 30.5558 69.1525 16.6062 83.0513 1.67137ZM46.4015 43.5415C60.2925 28.2067 75.0286 14.4005 85.7737 1.54942ZM46.4015 43.5415C59.6076 29.8544 72.9902 15.6209 85.7737 1.54942ZM49.1239 43.4196C62.9827 30.0505 76.2863 15.7819 88.4971 1.4265ZM49.1239 43.4196C57.5565 34.0561 66.5892 25.1668 88.4971 1.4265ZM51.1798 44.0088C66.9151 26.1229 82.2112 11.0133 91.2195 1.30358ZM51.1798 44.0088C64.5059 30.2914 77.2982 16.2589 91.2195 1.30358ZM53.9022 43.8859C62.6715 36.1438 70.1624 26.0731 93.2745 1.89282ZM53.9022 43.8859C63.3779 34.2171 72.1062 24.6741 93.2745 1.89282ZM56.6246 43.763C71.5568 28.7686 83.7383 14.4161 95.9978 1.77087ZM56.6246 43.763C71.9608 27.6281 87.7955 11.187 95.9978 1.77087ZM59.348 43.641C72.7902 29.4632 86.3953 15.0707 98.7202 1.64795ZM59.348 43.641C67.8157 34.9283 75.6804 26.9589 98.7202 1.64795ZM62.0704 43.5181C72.0954 32.225 83.0865 21.5036 101.444 1.52601ZM62.0704 43.5181C77.9354 26.6204 93.616 10.0446 101.444 1.52601ZM64.7938 43.3962C74.8881 33.0923 82.259 24.599 104.166 1.40309ZM64.7938 43.3962C75.3008 32.1265 85.2175 21.1875 104.166 1.40309ZM66.8487 43.9854C80.3358 28.7276 93.6228 14.6268 106.222 1.99233ZM66.8487 43.9854C80.4012 30.109 93.495 15.8482 106.222 1.99233ZM69.5721 43.8625C83.3529 28.6632 98.5436 13.5401 108.944 1.87038ZM69.5721 43.8625C79.7279 32.7976 89.71 22.4879 108.944 1.87038ZM72.2945 43.7405C81.7331 32.3274 91.5796 21.9884 111.667 1.74746ZM72.2945 43.7405C84.9873 29.6105 98.6373 15.5839 111.667 1.74746ZM75.0169 43.6176C89.4592 28.474 101.787 15.2756 114.39 1.62454ZM75.0169 43.6176C89.2621 28.7344 103.783 13.5069 114.39 1.62454ZM77.7402 43.4947C92.0284 28.7159 106.94 13.9908 117.112 1.50259ZM77.7402 43.4947C91.0136 29.1022 104.028 15.5312 117.112 1.50259ZM79.7952 44.0839C94.865 28.111 111.389 10.1149 119.836 1.37967ZM79.7952 44.0839C88.1175 35.3117 96.394 26.0468 119.836 1.37967ZM82.5186 43.962C96.1871 28.9295 110.873 15.22 121.891 1.96891ZM82.5186 43.962C93.899 31.8718 105.783 19.4188 121.891 1.96891ZM85.241 43.8391C100.707 27.9745 116.449 10.1773 124.614 1.84697ZM85.241 43.8391C99.4325 28.9198 113.973 13.5693 124.614 1.84697ZM87.9643 43.7171C100.791 29.7149 112.101 17.535 127.337 1.72405ZM87.9643 43.7171C102.902 28.3471 117.756 12.4835 127.337 1.72405ZM90.6867 43.5942C102.251 30.9724 112.964 19.9251 130.059 1.60113ZM90.6867 43.5942C101.537 31.827 113.427 19.3642 130.059 1.60113ZM93.4091 43.4722C106.365 28.9159 118.998 15.9263 132.782 1.47918ZM93.4091 43.4722C105.495 30.3295 117.999 16.615 132.782 1.47918ZM95.4651 44.0615C109.884 26.9092 126.252 11.465 134.837 2.06842ZM95.4651 44.0615C108.703 29.8232 122.02 15.4639 134.837 2.06842ZM98.1874 43.9386C107.274 34.0727 116.999 24.7493 137.561 1.9455ZM98.1874 43.9386C110.115 31.1948 121.688 18.7086 137.561 1.9455ZM100.911 43.8156C114.586 29.3998 127.425 16.3516 140.283 1.82355ZM100.911 43.8156C115.1 28.9481 129.56 13.3166 140.283 1.82355ZM103.633 43.6937C115.684 30.9987 125.983 19.9827 143.006 1.70063ZM103.633 43.6937C117.408 28.3071 131.975 13.5566 143.006 1.70063ZM106.357 43.5708C118.817 29.7734 132.485 15.1605 145.729 1.57869ZM106.357 43.5708C119.129 29.0817 133.206 15.0141 145.729 1.57869ZM108.412 44.16C123.004 29.4642 136.098 14.1634 148.451 1.45577ZM108.412 44.16C122.88 29.1725 136.82 13.3771 148.451 1.45577ZM111.135 44.0381C119.805 34.0181 128.389 25.8838 150.507 2.04501ZM111.135 44.0381C124.072 30.2231 136.673 16.2697 150.507 2.04501ZM113.857 43.9151C123.609 34.2171 131.467 25.4497 153.23 1.92209ZM113.857 43.9151C127.474 30.0153 140.435 15.4073 153.23 1.92209ZM116.58 43.7922C125.746 34.5741 136.546 23.0206 155.953 1.80014ZM116.58 43.7922C129.272 30.03 142.354 16.2785 155.953 1.80014ZM119.303 43.6703C130.997 30.9694 143.819 16.9535 158.675 1.67722ZM119.303 43.6703C133.827 28.234 147.918 12.6952 158.675 1.67722ZM121.358 44.2595C132.701 31.0465 145.091 18.8559 161.399 1.55527ZM121.358 44.2595C136.556 28.3188 150.462 12.6708 161.399 1.55527ZM124.081 44.1366C135.751 32.2279 147.349 19.8354 163.454 2.14451ZM124.081 44.1366C133.529 34.2229 142.494 24.0449 163.454 2.14451ZM126.804 44.0147C140.899 30.4807 153.484 15.3166 166.177 2.02159ZM126.804 44.0147C141.345 28.1071 156.404 12.3518 166.177 2.02159ZM129.527 43.8917C141.403 32.0767 151.866 20.2831 168.899 1.89965ZM129.527 43.8917C145.221 27.3784 161.156 10.0983 168.899 1.89965ZM132.25 43.7698C141.794 33.144 150.737 23.8283 171.622 1.77673ZM132.25 43.7698C140.343 35.3195 148.565 26.9687 171.622 1.77673ZM134.972 43.6469C148.27 29.1325 162.409 14.5868 174.345 1.65381ZM134.972 43.6469C150.246 27.1891 165.834 11.0914 174.345 1.65381ZM137.028 44.2361C146.055 34.2776 153.881 26.317 177.068 1.53186ZM137.028 44.2361C146.904 33.9381 157.576 22.6372 177.068 1.53186ZM139.75 44.1132C154.934 28.5432 170.666 11.0192 179.123 2.1211ZM139.75 44.1132C148.302 34.6405 157.133 24.839 179.123 2.1211ZM142.474 43.9912C153.292 33.4396 163.529 22.0177 181.846 1.99818ZM142.474 43.9912C153.139 33.4074 163.06 21.5689 181.846 1.99818ZM145.196 43.8683C158.064 30.0836 171.353 15.6512 184.569 1.87623ZM145.196 43.8683C155.636 32.3225 165.909 21.0675 184.569 1.87623ZM147.919 43.7464C162.138 29.7841 176.345 14.5615 186.624 2.46547ZM147.919 43.7464C163.231 28.1403 177.633 12.225 186.624 2.46547ZM149.974 44.3356C161.565 31.8943 174.159 18.61 188.013 3.7659ZM149.974 44.3356C164.962 28.9793 179.035 13.6474 188.013 3.7659ZM152.697 44.2127C160.318 35.8755 167.619 28.1384 190.068 4.35514ZM152.697 44.2127C166.492 29.4085 180.108 14.6259 190.068 4.35514ZM155.42 44.0908C165.319 34.6444 173.207 25.1083 192.124 4.94438ZM155.42 44.0908C165.49 33.3235 175.144 23.5913 192.124 4.94438ZM158.143 43.9678C169.33 31.6192 180.627 20.169 193.511 6.24578ZM158.143 43.9678C168.536 33.1479 178.887 21.7884 193.511 6.24578ZM160.866 43.8449C170.391 33.8035 180.859 23.2215 194.9 7.5462ZM160.866 43.8449C171.515 31.9674 183.737 19.5778 194.9 7.5462ZM163.588 43.723C174.38 31.7489 186.585 19.9153 195.621 9.55878ZM163.588 43.723C170.453 35.9087 177.363 29.0134 195.621 9.55878ZM165.644 44.3122C175.377 33.2054 185.311 22.0099 197.008 10.8602ZM165.644 44.3122C175.817 33.4123 185.697 22.8674 197.008 10.8602ZM168.367 44.1893C178.452 33.5518 187.972 23.5561 198.397 12.1616ZM168.367 44.1893C178.248 33.2064 188.769 22.6918 198.397 12.1616ZM171.089 44.0673C179.18 35.737 187.308 25.2341 199.117 14.1742ZM171.089 44.0673C181.573 32.1206 192.556 20.9182 199.117 14.1742ZM173.812 43.9444C181.489 35.9555 187.847 28.3774 200.505 15.4746ZM173.812 43.9444C180.204 37.3223 185.682 31.3294 200.505 15.4746ZM176.535 43.8215C181.4 38.3515 186.572 32.5596 201.227 17.4872ZM176.535 43.8215C185.588 34.578 194.452 24.9473 201.227 17.4872ZM178.591 44.4107C185.198 37.8033 190.895 30.3383 201.947 19.5007ZM178.591 44.4107C183.929 38.5769 190.101 31.6367 201.947 19.5007ZM180.646 45C185.12 40.1553 190.425 35.7585 202 22.2245ZM180.646 45C189.09 35.8219 196.678 26.914 202 22.2245ZM184.036 44.1659C189.205 38.4979 195.483 32.0601 200.719 26.3726ZM184.036 44.1659C189.453 38.8383 194.405 33.5303 200.719 26.3726ZM187.426 43.3318C189.987 40.3114 192.594 37.3418 199.438 30.5207ZM187.426 43.3318C191.21 39.2266 194.788 35.539 199.438 30.5207Z" stroke="#5D6970" stroke-opacity="0.08" stroke-width="0.947" stroke-linecap="round"/>
</svg>
