<svg width="414" height="308" viewBox="0 0 414 308" fill="none" xmlns="http://www.w3.org/2000/svg">
<path d="M13.8208 6.31785C12.0884 7.97099 9.06639 9.33791 6.2216 11.6969M12.7591 6.11498C11.6166 7.23108 9.92273 8.78428 7.46859 10.9092M31.6483 8.82479C22.9237 15.9538 18.2355 20.0691 4.99057 28.485M32.681 4.82773C27.8049 12.1472 21.9271 17.9358 8.56008 29.2238M61.9182 10.7137C39.7557 15.5159 28.9548 21.2464 0.650391 47.9232M56.0217 7.81427C39.2877 21.6041 21.8457 34.9172 5.93943 48.4453M68.6717 1.9551C61.5197 16.7476 51.5983 39.1199 14.981 62.4768M75.5087 3.81857C52.3196 24.1002 29.7384 39.3616 3.44616 68.0378M96.2589 6.57281C63.4585 34.0959 36.6452 57.3032 13.6046 88.7751M95.5651 8.53237C68.7074 28.896 40.6842 50.8573 9.28615 82.3025M123.072 9.81968C92.6965 29.996 60.3792 59.2723 7.65663 102.749M116.591 7.58893C82.9786 37.1563 45.1761 68.501 6.29559 103.679M132.05 7.07632C88.2095 41.213 53.7151 84.9108 13.7071 123.315M141.964 3.41056C105.785 35.1181 73.0723 66.1504 3.80027 117.001M160.612 8.5591C107.985 58.0706 47.5434 104.363 9.38363 141.664M162.931 8.57663C122.166 39.791 86.6654 71.2103 7.16074 136.361M185.331 5.86531C126.801 52.3009 76.0211 96.7478 8.84738 151.538M182.244 4.52166C132.393 49.7382 83.813 95.8801 7.03033 156.051M195.761 1.92114C121.316 67.1346 59.586 131.495 2.01468 171.763M203.419 7.76187C141.145 59.0414 81.4865 109.501 5.24977 172.025M224.924 10.1389C158.194 58.4956 102.263 109.346 2.24968 187.5M226.858 5.62689C158.651 60.3089 104.696 109.717 7.83441 188.981M243.986 1.0709C182.081 64.6587 113.509 126.338 5.51956 211.379M245.457 3.84226C196.978 43.4168 146.05 85.119 3.23016 209.809M262.042 1C198.068 67.7268 118.809 125.082 0.679008 223.168M264.591 5.7401C181.682 82.617 87.9441 159.342 7.99112 229.561M284.054 2.2014C193.934 88.3836 86.5575 178.362 5.49885 250.976M287.701 6.98645C194.801 82.7035 104.27 162.342 9.35377 242.727M308.264 4.1011C205.743 93.1696 100.936 188.756 6.56158 265.461M305.374 7.1211C237.177 70.6221 154.535 139.226 3.51948 265.56M334.534 10.4452C224.923 105.444 102.15 195.2 1.58359 279.762M328.712 7.70391C244.187 79.8757 150.32 152.835 8.09287 283.651M356.999 6.3428C244.368 95.546 148.245 184.272 5.72372 303.001M351.337 8.26047C214.387 121.735 78.0429 235.591 4.25138 296.876M373.989 3.53842C263.326 90.2108 163.713 181.994 26.9874 305.677M368.505 7.70686C272.903 92.8672 165.903 183.296 26.7296 299.265M385.854 6.98221C293.934 95.6509 186.886 177.581 54.6143 299.032M393.983 3.16076C314.712 72.1191 233.585 144.252 48.4354 303.433M409.39 17.6321C339.263 82.2517 267.23 145.165 65.9258 305.213M404.822 11.2901C331.481 83.4801 249.874 152.684 70.8171 299.427M401.865 27.6564C283.2 137.655 176.714 232.834 87.1519 306.575M406.328 33.968C330.093 101.989 252.533 165.077 88.5908 302.362M408.171 46.4754C313.694 130.548 226.386 205.099 118.12 296.301M407.316 49.4359C316.574 125.67 228.596 204.43 106.558 302.636M407.313 71.8046C335.69 119.801 281.323 171.602 135.968 301.038M403.639 66.7594C303.906 158.375 196.362 247.859 128.218 298.873M413 86.8925C313.484 161.452 209.345 246.495 151.786 307M407.204 87.3766C341.421 140.269 269.71 194.962 148.936 302.063M407.105 107.522C344.593 151.398 288.469 201.172 168.924 303.665M408.924 104.083C327.225 169.301 250.929 235.103 170.714 299.879M408.05 118.18C343.071 177.612 287.491 218.712 201.781 302.45M403.244 122.522C354.478 158.063 308.603 198.269 193.272 304.039M405.87 135.242C332.432 201.206 271.142 265.936 214.868 296.78M409.443 141.518C370.809 174.172 330.115 206.733 212.607 303.765M410.29 153.879C354.718 203.819 305.122 247.585 240.489 296.584M405.416 159.06C354.783 203.552 301.44 247.874 237.706 299.895M406.437 178.331C366.565 203.641 337.5 231.259 262.723 301.711M403.353 173.089C376.463 202.286 338.572 231.804 261.047 300.705M410.076 189.92C383.755 222.059 355.295 243.515 275.949 300.067M403.511 193.076C372.556 224.199 331.737 253.337 281.445 299.879M408.963 209.234C368.052 237.318 340.001 260.705 300.86 303.16M407.617 210.224C371.056 244.013 331.882 271.408 302.568 302.937M404.887 228.897C367.954 256.071 343.825 285.349 321.159 305.693M402.837 227.555C383.651 251.081 354.817 272.412 320.306 300.775M406.693 248.539C382.913 261.275 376.86 273.451 337.923 304.255M404.765 250.075C395.037 262.012 376.823 271.795 341.5 303.498M407.375 268.248C386.83 275.908 382.527 291.406 358.436 305.573M404.637 266.526C394.834 275.021 378.872 290.569 362.598 300.199M404.528 284.186C397.289 289.037 389.226 299.079 387.52 299.874M406.127 284.917C400.617 286.877 397.589 292.027 385.61 301.699" stroke="#FEFAF6" stroke-width="0.5"/>
</svg>
