<svg width="335" height="229" viewBox="0 0 335 229" fill="none" xmlns="http://www.w3.org/2000/svg">
<path d="M11.177 4.94494C9.77599 6.17129 7.33202 7.18531 5.0314 8.93532M10.3184 4.79445C9.39443 5.6224 8.02456 6.77461 6.03986 8.35094M25.5944 6.80466C18.5387 12.0932 14.7473 15.146 4.03585 21.3892M26.4295 3.83952C22.4861 9.26931 17.7326 13.5635 6.92257 21.9373M50.0741 8.20592C32.151 11.7684 23.4161 16.0194 0.525879 35.809M45.3055 6.05503C31.7725 16.2847 17.6669 26.1608 4.80321 36.1963M55.5357 1.70852C49.7518 12.682 41.7283 29.2785 12.1152 46.6053M61.0649 3.0909C42.3116 18.1365 24.0498 29.4578 2.78686 50.7306M77.846 5.13408C51.3198 25.5515 29.6355 42.7674 11.0021 66.1142M77.2849 6.58774C55.5646 21.6941 32.9018 37.9856 7.50975 61.3127M99.5301 7.5427C74.9649 22.5101 48.8295 44.2282 6.19193 76.4804M94.2892 5.88786C67.106 27.8219 36.5345 51.0743 5.09124 77.1701M106.791 5.5076C71.3363 30.8312 43.4401 63.2476 11.085 91.737M114.808 2.78822C85.5498 26.3098 59.0946 49.3305 3.07324 87.0528M129.889 6.60757C87.3287 43.3367 38.449 77.6775 7.58859 105.349M131.765 6.62057C98.7972 29.7763 70.0875 53.0841 5.7909 101.415M149.88 4.60923C102.546 39.0566 61.4793 72.0286 7.15491 112.673M147.383 3.61247C107.068 37.1555 67.7808 71.3849 5.68543 116.021M158.315 1.68333C98.1104 50.0607 48.188 97.8053 1.6292 127.677M164.508 6.01616C114.146 44.0568 65.8993 81.4893 4.24547 127.872M181.899 7.7795C127.934 43.652 82.7012 81.3743 1.81925 139.351M183.464 4.43237C128.304 44.9971 84.6694 81.6496 6.3357 140.45M197.315 1.0526C147.252 48.224 91.7967 93.9796 4.46365 157.065M198.505 3.10848C159.299 32.466 118.113 63.402 2.61218 155.901M211.917 1C160.18 50.5 96.0824 93.0481 0.549022 165.811M213.979 4.51635C146.929 61.5459 71.1217 118.463 6.46244 170.553M229.719 1.89123C156.837 65.8238 70.0003 132.572 4.4469 186.44M232.668 5.44093C157.538 61.6101 84.3247 120.688 7.56443 180.32M249.298 3.30049C166.387 69.3742 81.6282 140.283 5.30635 197.185M246.96 5.54082C191.809 52.6478 124.975 103.54 2.84616 197.259M270.543 8.00676C181.899 78.4798 82.6105 145.063 1.28057 207.794M265.834 5.97317C197.478 59.5124 121.566 113.636 6.54473 210.679M288.711 4.96345C197.624 71.1371 119.888 136.957 4.62876 225.033M284.132 6.38604C173.378 90.5649 63.1144 175.027 3.43806 220.49M302.451 2.88308C212.956 67.1792 132.397 135.266 21.825 227.019M298.016 5.97535C220.7 69.1499 134.168 136.232 21.6165 222.262M312.046 5.43778C237.709 71.2149 151.137 131.993 44.1673 222.089M318.62 2.60292C254.512 53.7583 188.904 107.268 39.1704 225.354M331.08 13.3382C274.367 61.2749 216.113 107.946 53.3151 226.674M327.386 8.63352C268.074 62.1862 202.077 113.524 57.2708 222.382M324.994 20.7745C229.028 102.375 142.911 172.981 70.481 227.685M328.604 25.4566C266.951 75.9169 204.227 122.717 71.6446 224.56M330.094 34.735C253.689 97.1023 183.082 152.407 95.5255 220.064M329.403 36.9312C256.018 93.4843 184.869 151.91 86.1749 224.762M329.4 53.525C271.478 89.1301 227.51 127.558 109.959 223.577M326.429 49.7823C245.773 117.746 158.801 184.127 103.692 221.971M333.999 64.7176C253.52 120.028 169.3 183.115 122.752 228M329.312 65.0767C276.112 104.314 218.118 144.887 120.447 224.338M329.232 80.0212C278.678 112.569 233.289 149.493 136.611 225.526M330.703 77.4702C264.632 125.851 202.93 174.665 138.059 222.717M329.996 87.928C277.447 132.016 232.498 162.505 163.184 224.625M326.11 91.1489C286.671 117.514 249.572 147.34 156.302 225.803M328.233 100.585C268.843 149.519 219.277 197.538 173.767 220.418M331.123 105.24C299.879 129.464 266.969 153.619 171.938 225.6M331.808 114.41C286.866 151.457 246.756 183.925 194.487 220.273M327.866 118.253C286.919 151.259 243.779 184.138 192.237 222.729M328.691 132.55C296.447 151.325 272.941 171.813 212.468 224.076M326.198 128.661C304.451 150.32 273.808 172.218 211.113 223.33M331.634 141.147C310.349 164.988 287.333 180.905 223.164 222.857M326.325 143.488C301.292 166.576 268.28 188.191 227.609 222.717M330.734 155.474C297.649 176.308 274.964 193.657 243.31 225.152M329.646 156.208C300.078 181.274 268.398 201.596 244.692 224.986M327.439 170.061C297.57 190.22 278.056 211.939 259.726 227.03M325.78 169.065C310.265 186.518 286.946 202.341 259.036 223.382M328.898 184.632C309.667 194.08 304.773 203.112 273.284 225.963M327.34 185.771C319.472 194.626 304.743 201.884 276.176 225.402M329.451 199.252C312.835 204.935 309.355 216.432 289.873 226.941M327.236 197.975C319.308 204.277 306.4 215.811 293.239 222.955M327.148 211.076C321.294 214.675 314.773 222.124 313.393 222.714M328.441 211.618C323.985 213.072 321.537 216.893 311.849 224.067" stroke="#5D6970" stroke-opacity="0.05" stroke-width="0.5"/>
</svg>
